<svg xmlns="http://www.w3.org/2000/svg" xmlns:xlink="http://www.w3.org/1999/xlink" width="512" zoomAndPan="magnify" viewBox="0 0 384 383.999986" height="512" preserveAspectRatio="xMidYMid meet" version="1.0"><defs><g/><clipPath id="c65ba4ae74"><rect x="0" width="247" y="0" height="384"/></clipPath></defs><rect x="-38.4" width="460.8" fill="#ffffff" y="-38.399999" height="460.799983" fill-opacity="1"/><rect x="-38.4" width="460.8" fill="#ffffff" y="-38.399999" height="460.799983" fill-opacity="1"/><g transform="matrix(1, 0, 0, 1, 57, 0)"><g clip-path="url(#c65ba4ae74)"><g fill="#000000" fill-opacity="1"><g transform="translate(1.285771, 323.923736)"><g><path d="M 162.9375 -298.9375 C 159.125 -298.9375 154.671875 -298.160156 149.578125 -296.609375 C 144.484375 -295.054688 139.285156 -292.117188 133.984375 -287.796875 C 128.679688 -283.484375 123.484375 -277.4375 118.390625 -269.65625 C 113.296875 -261.882812 108.734375 -251.804688 104.703125 -239.421875 C 100.671875 -227.046875 97.414062 -212.019531 94.9375 -194.34375 C 92.46875 -176.664062 91.234375 -155.800781 91.234375 -131.75 C 91.234375 -108.84375 92.46875 -88.972656 94.9375 -72.140625 C 97.414062 -55.304688 100.738281 -40.984375 104.90625 -29.171875 C 109.082031 -17.359375 113.859375 -7.703125 119.234375 -0.203125 C 124.609375 7.285156 130.265625 13.113281 136.203125 17.28125 C 142.148438 21.457031 148.09375 24.320312 154.03125 25.875 C 159.96875 27.4375 165.554688 28.21875 170.796875 28.21875 C 176.304688 28.21875 181.890625 27.507812 187.546875 26.09375 C 193.210938 24.675781 198.765625 22.625 204.203125 19.9375 C 209.648438 17.25 214.882812 13.992188 219.90625 10.171875 C 224.925781 6.359375 229.5625 1.976562 233.8125 -2.96875 L 243.359375 6.578125 C 239.109375 11.804688 234.015625 17.144531 228.078125 22.59375 C 222.140625 28.039062 215.242188 32.988281 207.390625 37.4375 C 199.535156 41.894531 190.726562 45.535156 180.96875 48.359375 C 171.21875 51.191406 160.398438 52.609375 148.515625 52.609375 C 129.984375 52.609375 112.757812 49.070312 96.84375 42 C 80.9375 34.9375 67.078125 23.941406 55.265625 9.015625 C 43.453125 -5.898438 34.1875 -25.023438 27.46875 -48.359375 C 20.75 -71.703125 17.390625 -99.640625 17.390625 -132.171875 C 17.390625 -162.722656 20.925781 -189.523438 28 -212.578125 C 35.070312 -235.640625 44.691406 -254.914062 56.859375 -270.40625 C 69.023438 -285.894531 83.3125 -297.5625 99.71875 -305.40625 C 116.125 -313.257812 133.59375 -317.1875 152.125 -317.1875 C 164.425781 -317.1875 175.632812 -316.019531 185.75 -313.6875 C 195.863281 -311.351562 204.597656 -307.957031 211.953125 -303.5 C 219.304688 -299.039062 225 -293.523438 229.03125 -286.953125 C 233.0625 -280.378906 235.078125 -272.921875 235.078125 -264.578125 C 235.078125 -260.753906 234.441406 -256.753906 233.171875 -252.578125 C 231.898438 -248.410156 229.953125 -244.59375 227.328125 -241.125 C 224.710938 -237.65625 221.492188 -234.820312 217.671875 -232.625 C 213.859375 -230.4375 209.40625 -229.34375 204.3125 -229.34375 C 199.789062 -229.34375 196.289062 -230.332031 193.8125 -232.3125 C 191.332031 -234.300781 189.492188 -236.921875 188.296875 -240.171875 C 187.097656 -243.421875 186.320312 -247.128906 185.96875 -251.296875 C 185.613281 -255.472656 185.363281 -259.753906 185.21875 -264.140625 C 185.082031 -268.523438 184.765625 -272.800781 184.265625 -276.96875 C 183.773438 -281.144531 182.785156 -284.859375 181.296875 -288.109375 C 179.804688 -291.367188 177.644531 -293.988281 174.8125 -295.96875 C 171.988281 -297.945312 168.03125 -298.9375 162.9375 -298.9375 Z M 162.9375 -298.9375 "/></g></g></g></g></g></svg>